<svg width="28" height="28" viewBox="0 0 28 28" xmlns="http://www.w3.org/2000/svg"><title>genres/edm</title><path d="M28 14H0V4.5c0-.32.074-.767.303-1.224C.697 2.488 1.429 2 2.5 2h23c.32 0 .767.074 1.224.303C27.512 2.697 28 3.429 28 4.5V14zm0 1v8.5c0 .32-.074.767-.303 1.224C27.303 25.512 26.571 26 25.5 26h-23c-.32 0-.767-.074-1.224-.303C.488 25.303 0 24.571 0 23.5V15h28zm-15 7v1h-2v-1h2zm1 0h2v1h-2v-1zm-1 3h-2v-1h2v1zm1 0v-1h2v1h-2zm-1-5v1h-2v-1h2zm1 0h2v1h-2v-1zm-1-2v1h-2v-1h2zm1 0h1.5c.054 0 .17.02.276.072.15.075.224.187.224.428v.5h-2v-1zm-4 4v1H8v-1h2zm0 3H8v-1h2v1zm0-5v1H8v-1h2zm0-2v1H8v-1h2zm-3 4v1H5v-1h2zm0 3H5v-1h2v1zm0-5v1H5v-1h2zm0-2v1H5v-.5c0-.054.02-.17.072-.276.075-.15.187-.224.428-.224H7zM23 7V5h-1v2h-1v1h1v4h1V8h1V7h-1zm-6 1V5h-1v3h-1v1h1v3h1V9h1V8h-1zm-6 1V5h-1v4H9v1h1v2h1v-2h1V9h-1zM5 7V5H4v2H3v1h1v4h1V8h1V7H5zm20 13a3 3 0 1 0-6 0 3 3 0 0 0 6 0zm-1 0a2 2 0 1 1-4 0 2 2 0 0 1 4 0zm-7 6v-7.5c0-.634-.3-1.084-.776-1.322A1.638 1.638 0 0 0 15.5 17h-10c-.634 0-1.084.3-1.322.776-.135.27-.178.528-.178.724V26h13z" fill-rule="nonzero" fill="#FFF"/></svg>