<svg width="28" height="28" viewBox="0 0 28 28" xmlns="http://www.w3.org/2000/svg"><title>genres/hip-hop</title><path d="M8 10V4.5c0-.196.043-.454.178-.724C8.416 3.3 8.866 3 9.5 3h9c.196 0 .454.043.724.178.476.238.776.688.776 1.322V10H8zm0 1v1h12v-1H8zm13-4h4.5c.32 0 .767.074 1.224.303C27.512 7.697 28 8.429 28 9.5V12h-7V7zM7 7H2.5C1.429 7 .697 7.488.303 8.276A2.803 2.803 0 0 0 0 9.5V12h7V7zm21 6v9.5c0 .32-.074.767-.303 1.224C27.303 24.512 26.571 25 25.5 25h-23c-.32 0-.767-.074-1.224-.303C.488 24.303 0 23.571 0 22.5V13h28zM9 18a4 4 0 1 0-8 0 4 4 0 0 0 8 0zm-1 0a3 3 0 1 1-6 0 3 3 0 0 1 6 0zm-1.5 0a1.5 1.5 0 1 0-3 0 1.5 1.5 0 0 0 3 0zm-1 0a.5.5 0 1 1-1 0 .5.5 0 0 1 1 0zM27 18a4 4 0 1 0-8 0 4 4 0 0 0 8 0zm-1 0a3 3 0 1 1-6 0 3 3 0 0 1 6 0zm-1.5 0a1.5 1.5 0 1 0-3 0 1.5 1.5 0 0 0 3 0zm-1 0a.5.5 0 1 1-1 0 .5.5 0 0 1 1 0zm-14 5h9v-1h-9v1zm0-3h9v-1h-9v1zm1.5-2h6v-4h-6v4zm1-1v-2h4v2h-4zm7-12.5c0-.241-.075-.353-.224-.428A.702.702 0 0 0 18.5 4h-9c-.241 0-.353.075-.428.224A.702.702 0 0 0 9 4.5V7h10V4.5z" fill-rule="nonzero" fill="#FFF"/></svg>