<svg width="28" height="28" viewBox="0 0 28 28" xmlns="http://www.w3.org/2000/svg"><title>genres/indie</title><path d="M14 28C6.268 28 0 21.732 0 14S6.268 0 14 0s14 6.268 14 14-6.268 14-14 14zM3 14c0 6.068 4.927 11 11 11a.5.5 0 1 0 0-1C8.48 24 4 19.516 4 14a.5.5 0 1 0-1 0zm21 0c0-5.52-4.483-10-10-10a.5.5 0 1 0 0 1c4.964 0 9 4.032 9 9a.5.5 0 1 0 1 0zm-.874 4.084c.254-.567-.548-.997-.879-.472l-1.416 2.246c-.331.526.403 1.064.804.59a9.978 9.978 0 0 0 1.491-2.364zM20 14a6 6 0 1 0-12.001-.001A6 6 0 0 0 20 14zm-1 0c0 2.757-2.243 5-5 5a5 5 0 1 1 5-5zm-3 0a2 2 0 1 0-4.001.001A2 2 0 0 0 16 14zm-1 0a1 1 0 1 1-2.001-.001A1 1 0 0 1 15 14z" fill-rule="nonzero" fill="#FFF"/></svg>