<svg width="28" height="28" viewBox="0 0 28 28" xmlns="http://www.w3.org/2000/svg"><title>genres/jazz</title><path d="M25 19.006h1.5c.667 0 .667 1 0 1H25v1.5c0 .666-1 .666-1 0v-1.5h-1.5c-.667 0-.667-1 0-1H24v-1.5c0-.667 1-.667 1 0v1.5zm-23-16h.5c.667 0 .667 1 0 1H2v.5c0 .666-1 .666-1 0v-.5H.5c-.667 0-.667-1 0-1H1v-.5c0-.667 1-.667 1 0v.5zm18 22h.5c.667 0 .667 1 0 1H20v.5c0 .666-1 .666-1 0v-.5h-.5c-.667 0-.667-1 0-1h.5v-.5c0-.667 1-.667 1 0v.5zm-8-24h.5c.667 0 .667 1 0 1H12v.5c0 .666-1 .666-1 0v-.5h-.5c-.667 0-.667-1 0-1h.5v-.5c0-.667 1-.667 1 0v.5zm2.348 19.072a2.678 2.678 0 0 1-1.782 5.04c-1.851 3.206-5.404 3.543-9.012 1.175-1.66-1.09-2.416-2.556-2.466-4.35-.027-.95.123-1.854.455-3.153.035-.14.166-.641.194-.75.068-.268.116-.468.152-.646.177-.862.279-1.935.316-3.17.022-.726.02-1.482 0-2.248l8.203 1.026.154-1.235-8.405-1.05a56.328 56.328 0 0 0-.154-2.161.5.5 0 0 1 .547-.548l9.91.991 4.544-6.949c.4-.692.868-1.202 1.394-1.542.925-.597 1.91-.622 2.814-.311.212.073.37.147.468.204 1.033.596 1.347 1.392 1.476 2.89l.016.193c.106 1.275.255 1.711.826 2.04l1.158.661a.474.474 0 0 0-.606.22l-1.09 1.887c-.163.282-.04.545.167.674l-3.998-2.308-.395.39-.235.627a2.678 2.678 0 0 1-1.879 5.01l-.447 1.192a2.678 2.678 0 0 1-1.879 5.01l-.446 1.19zm9.311-11.093c.215.114.504.089.667-.192l1.09-1.887a.474.474 0 0 0-.116-.638l.875.5c.36.208.602.49.72.822.132.369.1.74-.024 1.09-.04.113-.082.2-.116.26a1.746 1.746 0 0 1-.332.402c-.491.448-1.142.58-1.837.178l-.927-.535zm-6.586 8.192a1.678 1.678 0 1 0-2.907-1.677 1.678 1.678 0 0 0 2.907 1.677zm2.323-6.201a1.678 1.678 0 1 0-2.907-1.679 1.678 1.678 0 0 0 2.907 1.679zM14.75 23.379a1.678 1.678 0 1 0-2.908-1.676 1.678 1.678 0 0 0 2.908 1.676z" fill="#FFF"/></svg>