<svg width="28" height="28" viewBox="0 0 28 28" xmlns="http://www.w3.org/2000/svg"><title>genres/metal</title><path d="M19.817 6.405v-4.33S19.817 0 21.91 0C24 0 24 2.074 24 2.074v16.593c0 4.148-2.091 4.148-2.091 6.222v.566H9.36v-.566c0-2.074-2.962-.475-8.798-9.941-.678-1.078-.817-2.123 0-2.933a2.103 2.103 0 0 1 2.957 0l3.75 3.736V2.074S7.269 0 9.36 0c2.092 0 2.092 2.074 2.092 2.074v4.577a3.013 3.013 0 0 0-.566 1.713v6.272c0 .35.08.831.33 1.326.433.861 1.242 1.397 2.417 1.397.935 0 1.638-.34 2.105-.912.467.573 1.17.912 2.105.912 1.175 0 1.984-.536 2.418-1.397.249-.495.33-.976.33-1.326V8.364c0-.35-.081-.831-.33-1.326a2.589 2.589 0 0 0-.444-.633zm2.092 20.322V28H9.36v-1.273H21.91zM9.36 24.89H21.91 9.36zm2.81-16.525c0-.173.05-.476.196-.765.224-.446.6-.694 1.267-.694.667 0 1.042.248 1.267.694.145.289.196.592.196.765v6.272c0 .173-.05.476-.196.765-.225.446-.6.694-1.267.694-.668 0-1.043-.248-1.267-.694a1.84 1.84 0 0 1-.197-.765V8.364zm4.21 6.272V8.364c0-.173.05-.476.196-.765.225-.446.6-.694 1.267-.694.668 0 1.043.248 1.267.694.146.289.196.592.196.765v6.272c0 .173-.05.476-.196.765-.224.446-.6.694-1.267.694-.667 0-1.042-.248-1.267-.694a1.84 1.84 0 0 1-.196-.765z" fill="#FFF" fill-rule="evenodd"/></svg>