<svg width="28" height="28" viewBox="0 0 28 28" xmlns="http://www.w3.org/2000/svg"><title>genres/pop</title><path d="M2.854 9.499h1v2h-1v-2zm1 0v2h-1v-2h1zm-1.5 1.5v-1h2v1h-2zm0-1h2v1h-2v-1zm21.5 9.5h1v2h-1v-2zm1 0v2h-1v-2h1zm-1.5 1.5v-1h2v1h-2zm0-1h2v1h-2v-1zM6.854.499h1v4h-1v-4zm1 0v4h-1v-4h1zm-2.5 2.5v-1h4v1h-4zm0-1h4v1h-4v-1zm11.5 20.5h1v4h-1v-4zm1 0v4h-1v-4h1zm-2.5 2.5v-1h4v1h-4zm2.443-9.075l-5.88-5.883c.41-.164.839-.094 1.221.135.132.08.23.16.295.224l4.017 4.02c.474.478.542 1.016.347 1.504zm-.84.978a162.579 162.579 0 0 1-5.184 4.348c-.384.307-.76.604-1.127.889-4.112 3.2-6.418 4.583-7.297 3.704l-1.339-1.34c-.913-.912.565-3.361 3.895-7.61 1.658-2.116 3.958-4.824 5.032-6.012l6.02 6.021zM15.353 24h4v1h-4v-1zm-12.675.467l.707.707-2.679 2.68-.706-.71 2.679-2.679zM13.682 2.775L25.079 14.17a8.078 8.078 0 0 1-7.576 1.66l-.122-.036-5.322-5.321-.035-.123a8.08 8.08 0 0 1 1.658-7.575zm.791-.792A8.079 8.079 0 0 1 25.87 13.378L14.473 1.983z" fill="#FFF"/></svg>