<svg width="20" height="17" viewBox="0 0 20 17" xmlns="http://www.w3.org/2000/svg"><title>likes</title><g fill-rule="nonzero" fill="#000"><path opacity=".3" d="M16.8 10.524l.8-.81V8.095H16l-4.8 7.286h2.4z"/><path d="M11.2 1.619v2.429l-.8 4.047h7.2v1.62l-.8.809-3.2 4.857h-4l-1.6-.81H6.4V8.095l2.4-3.238 1.6-3.238h.8zM11.2 0h-.8a1.6 1.6 0 0 0-1.431.895L7.434 4.002 5.12 7.123c-.208.28-.32.622-.32.971v6.477a1.61 1.61 0 0 0 1.6 1.619h1.222l1.263.638c.222.113.467.171.716.171h4c.535 0 1.034-.27 1.331-.721l3.112-4.724.688-.696c.3-.303.469-.715.469-1.145V8.094a1.61 1.61 0 0 0-1.6-1.619h-5.249s.449-2.321.449-2.428V1.618C12.8.725 12.083 0 11.2 0zm-8 6.476H0V17h3.2c.44 0 .8-.364.8-.81V7.286c0-.446-.36-.81-.8-.81z"/></g></svg>