<svg width="22" height="22" viewBox="0 0 22 22" xmlns="http://www.w3.org/2000/svg"><title>volume-1</title><g fill="#616161" fill-rule="evenodd"><path d="M11.885 14.36a5.784 5.784 0 0 0 .167-7.993l-.725.53a5.28 5.28 0 0 1-.152 6.934l.71.53zM1 8.07v4.924l3.5.46V7.546L1 8.07zm3.5-.493v5.91l5 3.446V4.13l-5 3.447z"/><path d="M18.042 2A13.69 13.69 0 0 1 21 10.531 13.69 13.69 0 0 1 18.091 19l-.837-.626C18.97 16.177 20 13.465 20 10.531c0-2.966-1.053-5.705-2.803-7.915L18.042 2zM14.83 16.562l-.72-.539C15.291 14.476 16 12.58 16 10.531c0-2.096-.742-4.034-1.976-5.601l.725-.528C16.15 6.092 17 8.22 17 10.532c0 2.266-.817 4.356-2.17 6.03z" fill-opacity=".2"/></g></svg>